<svg width="1184" height="1205" viewBox="0 0 1184 1205" fill="none" xmlns="http://www.w3.org/2000/svg">
<path d="M60.384 866.478C29.0786 803.26 9.64781 736.979 2.84211 667.101C-7.10777 564.939 9.20457 466.888 49.6201 372.734C82.7194 295.625 128.266 226.743 187.951 167.659C272.688 83.7754 374.215 31.7486 491.331 9.83154C541.762 0.393932 592.531 -2.40115 643.608 2.10682C767.262 13.0204 876.487 58.3537 970.04 140.329C1048.16 208.784 1104.7 292.436 1142.16 388.958C1174.12 471.281 1188.56 556.696 1182.64 645.046C1176.35 738.993 1148.36 826.25 1099.99 907.016C1057.08 978.672 1002.32 1039.67 935.284 1089.48C884.216 1127.43 828.405 1156.42 767.907 1176.31C702.319 1197.86 635.089 1207.24 566.087 1203.96C495.028 1200.59 427.065 1184.12 362.327 1154.92C265.159 1111.09 184.446 1046.36 119.868 961.552C97.2062 931.792 77.309 900.279 60.384 866.478ZM987.045 204.282C982.625 199.749 978.273 195.147 973.775 190.694C910.685 128.238 837.155 82.9984 751.969 57.4876C652.592 27.7269 552.709 27.3872 452.627 54.0849C389.338 70.9675 331.128 98.7195 277.847 136.739C217.103 180.084 167.807 234.245 127.863 297.045C77.9935 375.447 46.4859 460.43 36.8721 553.166C29.0325 628.787 36.5058 702.867 59.5466 775.309C85.9308 858.265 130.898 930.255 190.349 993.266C247.824 1054.18 315.265 1101.11 392.924 1132.85C491.306 1173.06 592.659 1184.07 697.146 1162.77C770.626 1147.79 838.067 1118.6 899.708 1076.08C970.027 1027.56 1026.57 966.075 1070.62 892.992C1115.42 818.675 1142.01 738.405 1148.66 651.802C1153.61 587.257 1147.54 523.63 1130.2 461.229C1103.27 364.315 1055.99 278.641 987.045 204.282Z" fill="#0C2A5D"/>
<path d="M987.286 204.539C1055.99 278.641 1103.27 364.314 1130.2 461.229C1147.54 523.63 1153.61 587.257 1148.66 651.802C1142.01 738.405 1115.42 818.675 1070.62 892.992C1026.57 966.075 970.027 1027.56 899.708 1076.08C838.067 1118.6 770.626 1147.79 697.146 1162.77C592.659 1184.07 491.306 1173.06 392.924 1132.85C315.265 1101.11 247.824 1054.18 190.349 993.266C130.898 930.255 85.9308 858.265 59.5466 775.309C36.5058 702.867 29.0325 628.787 36.8721 553.166C46.4859 460.43 77.9935 375.447 127.863 297.045C167.807 234.245 217.103 180.084 277.847 136.739C331.128 98.7195 389.338 70.9675 452.627 54.0849C552.709 27.3872 652.592 27.7269 751.969 57.4875C837.155 82.9984 910.685 128.238 973.775 190.694C978.273 195.147 982.625 199.749 987.286 204.539ZM1063.55 470.014C962.024 470.013 860.498 470.012 758.972 470.021C757.979 470.021 756.986 470.155 755.336 469.991C754.843 470.79 753.773 471.761 753.951 472.361C755.198 476.567 756.702 480.696 758.18 485.646C759.947 486.385 761.714 487.769 763.482 487.771C864.394 487.863 965.307 487.84 1066.22 487.828C1067.69 487.828 1069.16 487.828 1071.34 487.828C1070.44 485.128 1069.73 482.986 1069.01 480.097C1068.04 477.36 1067.08 474.623 1066.16 471.333C1066.05 471.18 1065.95 471.027 1065.79 470.308C1065.27 470.284 1064.75 470.259 1063.55 470.014ZM1053.37 433.074C1053.37 433.074 1053.11 432.888 1053.04 432.138C1050.67 426.281 1048.11 420.49 1045.99 414.543C1044.64 410.761 1042.71 409.334 1038.43 409.34C940.268 409.474 842.11 409.425 743.951 409.41C740.318 409.41 736.685 409.41 732.199 409.41C734.721 416.704 736.987 423.258 739.288 430.559C741.181 433.46 739.135 438.839 745.632 438.831C847.508 438.707 949.383 438.743 1051.26 438.731C1052.51 438.73 1053.76 438.573 1055.64 438.447C1054.76 436.502 1054.1 435.042 1053.38 433.491C1053.38 433.491 1053.33 433.39 1053.37 433.074ZM428.473 474.337C428.826 472.978 429.179 471.62 429.622 469.916C410.589 469.916 392.127 469.919 373.665 469.916C289.951 469.901 206.238 469.887 122.524 469.861C119.548 469.86 116.192 469.158 115.978 474.546C115.626 475.982 115.274 477.418 114.535 479.452C113.839 482.088 113.144 484.725 112.326 487.823C114.544 487.823 116.02 487.823 117.497 487.823C186.433 487.815 255.37 487.805 324.307 487.802C356.111 487.801 387.915 487.818 419.719 487.817C421.955 487.817 424.665 488.537 425.088 484.178C426.071 481.082 427.054 477.985 428.473 474.337ZM128.232 437.302C129.771 437.746 131.309 438.578 132.848 438.578C234.141 438.624 335.433 438.604 436.726 438.569C437.853 438.568 438.98 438.293 440.797 437.837C443.934 428.486 447.071 419.135 450.335 409.407C448.323 409.407 447.161 409.407 445.999 409.407C384.86 409.39 323.722 409.361 262.583 409.359C222.935 409.358 183.287 409.369 143.639 409.512C141.85 409.519 138.995 410.431 138.453 411.698C134.934 419.935 131.919 428.387 128.232 437.302ZM829.687 663.895C829.707 627.545 829.718 591.195 829.766 554.845C829.769 552.542 830.059 550.238 831.105 548.101C836.023 548.101 840.941 548.101 845.953 548.101C846.588 553.069 847.149 557.468 847.503 562.59C848.182 563.52 848.841 565.242 849.541 565.259C857.469 565.45 865.404 565.38 873.59 565.38C873.59 550.055 873.59 534.985 873.59 519.805C833.016 519.805 792.654 519.805 752.122 519.805C752.122 534.202 752.09 548.189 752.201 562.175C752.208 563.042 753.347 563.9 754.877 564.968C762.187 564.968 769.496 564.968 777.203 564.968C777.767 559.3 778.306 553.885 778.864 548.281C784.345 548.281 789.599 548.281 795.355 548.281C795.355 550.317 795.355 552.104 795.355 553.891C795.361 588.859 795.287 623.827 795.474 658.794C795.497 663.058 794.292 665.531 790.373 667.201C788.674 667.925 786.412 669.822 786.297 671.33C785.832 677.431 786.104 683.587 786.104 690.092C803.69 690.671 820.873 691.237 838.523 691.819C838.523 688.327 838.182 685.467 838.587 682.716C839.785 674.568 837.943 668.122 829.687 663.895ZM77.464 687.129C75.9827 688.207 74.4135 689.185 73.0424 690.389C71.3511 691.874 68.5611 693.46 68.4452 695.153C67.9382 702.561 68.227 710.023 68.227 717.351C104.042 712.768 139.29 708.258 174.338 703.773C174.338 685.532 174.338 667.656 174.338 649.37C164.974 650.325 156.106 651.229 147.268 652.13C146.606 660.39 145.987 668.114 145.35 676.073C135.025 677.266 125.164 678.405 114.848 679.596C114.848 677.608 114.847 675.97 114.848 674.331C114.875 635.007 115.004 595.682 114.802 556.359C114.777 551.52 116.005 548.638 120.473 546.743C122.375 545.936 125.048 544.017 125.165 542.438C125.681 535.542 125.387 528.585 125.387 521.799C106.203 521.799 87.6078 521.799 68.4955 521.799C68.4955 526.063 68.9153 529.917 68.4101 533.646C67.2783 541.998 68.7754 548.624 77.9503 551.268C78.2388 551.352 78.4523 551.695 78.524 552.83C78.4688 572.932 78.4193 593.034 78.3569 613.137C78.2806 637.722 78.1935 662.307 77.464 687.129ZM441.391 545.536C442.969 544.61 444.644 543.812 446.098 542.72C447.461 541.696 449.585 540.417 449.656 539.152C450.02 532.757 449.824 526.33 449.824 519.977C432.248 519.977 415.476 519.977 398.134 519.977C398.134 525.53 398.412 530.832 398.044 536.089C397.759 540.16 398.928 542.819 402.942 543.891C406.496 544.841 407.127 547.217 407.088 550.608C406.925 565.099 407.033 579.594 407.04 594.087C407.043 600.464 407.04 606.841 407.04 613.218C405.745 612.685 405.328 612.041 405.013 611.35C391.725 582.152 378.397 552.971 365.242 523.712C363.961 520.862 362.579 519.663 359.392 519.826C353.909 520.107 348.401 519.917 342.904 519.919C334.801 519.922 326.699 519.92 318.127 519.92C318.127 525.912 318.45 531.232 318.026 536.492C317.679 540.805 318.945 543.562 323.145 544.705C326.544 545.631 327.067 547.868 327.012 551.109C326.696 569.923 326.501 588.741 326.486 607.558C326.47 626.043 326.652 644.53 326.916 663.013C326.959 666.043 326.082 667.861 323.425 669.411C321.297 670.653 318.297 672.619 318.088 674.527C317.409 680.731 317.834 687.056 317.834 693.757C335.159 692.995 352.041 692.252 369.52 691.483C369.52 686.19 369.24 681.214 369.609 676.287C369.9 672.41 368.846 669.895 365.047 668.677C361.543 667.554 360.499 665.15 360.577 661.453C360.829 649.63 360.696 637.799 360.704 625.971C360.71 616.739 360.705 607.507 360.705 598.275C362.234 599.66 363.053 601.188 363.763 602.764C376.256 630.493 388.711 658.239 401.283 685.932C402.006 687.523 403.678 689.881 404.89 689.87C419.664 689.731 434.434 689.216 449.749 688.782C449.749 685.292 449.314 682.091 449.834 679.053C451.189 671.137 448.359 666.05 440.566 662.887C440.625 623.863 440.684 584.84 441.391 545.536ZM595.316 1061.01C625.523 1087.46 655.7 1113.95 686.021 1140.27C687.58 1141.63 690.534 1142.43 692.558 1142.03C749.158 1131.07 802.512 1111.26 852.27 1082.13C929.769 1036.76 992.249 975.784 1040.26 899.938C1041 898.769 1041.6 897.513 1042.32 896.212C742.158 896.212 442.557 896.212 142.437 896.212C143.545 898.07 144.254 899.364 145.06 900.595C172.68 942.765 204.764 981.143 242.661 1014.47C314.783 1077.89 397.55 1120.55 491.424 1141.43C494.501 1142.12 496.566 1141.71 498.988 1139.54C516.244 1124.1 533.662 1108.84 551.042 1093.53C552.365 1092.37 553.795 1091.32 555.554 1089.92C566.553 1101.38 577.233 1112.51 588.015 1123.75C578.724 1132.69 569.186 1141.87 559.649 1151.05C559.788 1151.5 559.928 1151.96 560.068 1152.42C582.703 1152.42 605.338 1152.42 627.972 1152.42C628.128 1152.03 628.283 1151.64 628.439 1151.25C579.715 1103.75 530.991 1056.26 482.214 1008.72C490.621 1000.37 498.723 992.33 506.889 984.224C536.181 1009.66 565.483 1035.1 595.316 1061.01ZM1051.25 326.053C1035.68 298.798 1017.94 273.035 997.963 248.829C936.858 174.772 862.205 119.41 771.779 86.2604C694.687 57.9983 615.231 48.8924 533.665 58.8066C431.441 71.2317 339.911 109.319 260.753 175.236C168.976 251.661 108.032 348.491 74.9535 463.048C72.6534 471.014 70.7581 479.097 68.5137 487.745C73.2447 487.745 77.4123 487.316 81.4518 487.852C86.6663 488.544 88.4906 486.491 89.7383 481.564C104.795 422.117 129.401 366.816 162.953 315.534C216.371 233.884 285.567 169.678 373.829 127.123C462.014 84.6058 555.018 68.2239 652.339 79.3918C740.854 89.5492 820.925 121.866 892.045 175.551C985.951 246.437 1049.29 339.038 1085.38 450.647C1089.32 462.819 1092.61 475.199 1096.21 487.542C1102.41 487.542 1108.53 487.542 1115.15 487.542C1101.98 430.485 1080.83 377.004 1051.25 326.053ZM692.134 466.157C706.22 475.349 720.307 484.542 735.409 494.398C716.888 441.606 698.821 390.105 680.64 338.279C722.768 304.907 764.716 271.678 807.413 237.855C804.664 237.855 802.738 237.853 800.811 237.855C751.484 237.926 702.158 237.925 652.832 238.189C648.347 238.213 646.627 236.743 645.139 232.7C632.963 199.607 620.541 166.604 608.16 133.586C603.349 120.756 598.453 107.958 593.289 94.3391C592.37 96.5021 591.734 97.8157 591.242 99.1813C575.244 143.637 559.202 188.077 543.37 232.592C541.879 236.782 540.187 238.4 535.415 238.371C483.591 238.051 431.764 238.038 379.938 237.943C377.727 237.939 375.517 237.943 372.612 237.943C416.165 271.753 458.893 304.923 501.806 338.237C484.11 390.272 466.545 441.922 448.59 494.718C451.059 493.094 452.527 492.116 454.007 491.156C498.581 462.264 543.189 433.422 587.673 404.391C591.33 402.004 593.758 402.198 597.297 404.519C628.625 425.061 660.087 445.397 692.134 466.157ZM1047.96 633.47C1054.3 631.066 1057.29 632.291 1059.02 637.915C1066.22 661.288 1073.41 684.663 1080.73 707.998C1081.13 709.287 1082.5 711.018 1083.65 711.212C1095.27 713.186 1106.94 714.882 1119.24 716.754C1119.24 710.15 1118.96 703.847 1119.33 697.582C1119.59 693.383 1118.34 690.847 1114.53 688.879C1112.4 687.777 1110.15 685.558 1109.4 683.352C1103.96 667.265 1098.95 651.029 1093.61 634.906C1092.71 632.204 1093.36 630.646 1095.29 628.871C1100.56 624.023 1105.55 618.87 1110.91 614.117C1113.24 612.047 1114.16 609.961 1114.13 606.837C1113.99 587.681 1114.16 568.522 1113.94 549.367C1113.91 547.032 1112.77 544.199 1111.19 542.482C1105.44 536.243 1099.44 530.193 1093.16 524.488C1091.2 522.704 1088.06 521.366 1085.42 521.303C1059.61 520.692 1033.79 520.389 1007.97 520.022C1006.72 520.004 1005.46 520.209 1004.01 520.326C1004.01 526.37 1004.31 532.045 1003.91 537.672C1003.62 541.792 1005.05 544.357 1008.78 545.662C1012.57 546.987 1013.24 549.615 1013.23 553.369C1013.09 592.516 1013.07 631.663 1013.25 670.808C1013.26 674.776 1012.13 676.907 1008.47 678.278C1006.84 678.888 1004.5 680.552 1004.42 681.856C1004.01 688.589 1004.23 695.361 1004.23 702.309C1021.81 704.089 1038.79 705.808 1056.23 707.574C1056.23 701.287 1055.99 695.312 1056.32 689.368C1056.52 685.723 1055.46 683.327 1052.12 681.878C1048.64 680.366 1047.67 677.773 1047.75 673.934C1048.04 660.78 1047.88 647.616 1047.96 633.47ZM286.965 532.361C284.059 529.614 280.918 527.069 278.311 524.062C275.641 520.985 272.622 520.177 268.665 520.258C252.837 520.583 237 520.495 221.172 520.805C219.111 520.845 216.616 521.806 215.113 523.196C208.387 529.416 201.863 535.862 195.48 542.435C194.269 543.683 193.431 545.871 193.425 547.629C193.259 590.124 193.199 632.62 193.281 675.116C193.285 676.957 194.388 679.251 195.733 680.557C201.587 686.244 207.566 691.83 213.847 697.032C215.752 698.61 218.823 699.689 221.276 699.548C237.744 698.599 254.196 697.342 270.633 695.94C272.693 695.765 275.043 694.588 276.553 693.14C282.564 687.375 288.172 681.188 294.191 675.433C296.705 673.029 297.591 670.56 297.582 667.135C297.49 630.145 297.158 593.148 297.825 556.17C298.007 546.098 295.943 538.413 286.965 532.361ZM960.911 571.341C959.624 565.319 958.4 559.284 957.03 553.282C956.077 549.107 954.212 544.806 959.987 542.467C960.431 542.287 960.823 541.379 960.828 540.806C960.885 533.876 960.865 526.945 960.865 519.991C940.461 519.991 920.754 519.991 900.785 519.991C900.785 525.885 900.904 531.375 900.738 536.855C900.646 539.89 901.216 542.156 903.986 544.037C905.059 544.765 905.562 547.449 905.214 548.991C896.789 586.359 888.143 623.677 879.756 661.053C878.761 665.484 877.181 668.654 872.743 670.339C871.397 670.851 869.756 672.753 869.686 674.092C869.363 680.344 869.543 686.622 869.543 693.213C885.906 694.015 901.749 694.793 917.913 695.585C917.913 688.67 918.068 682.514 917.799 676.378C917.735 674.909 916.587 672.729 915.367 672.206C910.782 670.237 909.879 667.235 911.388 662.783C912.237 660.275 912.391 657.535 913.206 655.012C913.524 654.026 914.815 652.617 915.628 652.639C925.719 652.918 935.803 653.426 945.853 653.873C946.835 658.379 947.536 662.315 948.576 666.16C949.599 669.945 948.937 672.476 944.808 673.747C943.484 674.155 941.579 675.659 941.531 676.733C941.23 683.474 941.379 690.236 941.379 697.207C958.43 698.488 974.811 699.718 991.728 700.989C991.728 694.987 991.55 689.361 991.795 683.753C991.941 680.407 991.291 677.961 987.902 676.645C984.134 675.182 982.8 672.139 981.972 668.26C975.125 636.204 968.065 604.194 960.911 571.341ZM543.295 588.847C533.22 588.847 523.146 588.847 513.253 588.847C513.253 574.733 513.253 561.478 513.253 548.181C522.856 548.181 532.105 548.181 541.526 548.181C541.978 553.83 542.41 559.227 542.85 564.726C552.009 564.726 560.756 564.726 569.625 564.726C569.625 549.565 569.625 534.673 569.625 519.836C536.208 519.836 503.107 519.836 469.548 519.836C469.548 525.403 469.891 530.722 469.439 535.972C469.076 540.195 470.578 542.603 474.434 543.733C478.139 544.818 478.829 547.26 478.742 550.896C478.323 568.541 478.032 586.193 478.027 603.843C478.022 620.827 478.216 637.818 478.765 654.792C478.94 660.221 477.768 664.036 472.58 666.337C471.279 666.914 469.631 668.548 469.569 669.768C469.261 675.84 469.428 681.935 469.428 687.292C503.087 687.292 536.146 687.292 569.353 687.292C569.353 671.691 569.353 657.104 569.353 642.356C560.4 642.356 551.703 642.356 542.902 642.356C542.397 648.13 541.924 653.534 541.436 659.108C531.743 659.108 522.477 659.108 513.239 659.108C513.239 645.053 513.239 631.312 513.239 617.047C524.307 617.047 535.046 617.047 546.112 617.047C546.112 608.061 546.16 599.596 546.032 591.135C546.02 590.361 544.88 589.605 543.295 588.847ZM644.604 670.541C649.957 675.551 655.222 680.661 660.726 685.499C662.068 686.679 664.182 687.535 665.962 687.573C681.289 687.893 696.62 688.059 711.95 688.066C713.714 688.066 715.857 687.239 717.179 686.068C723.161 680.766 729.034 675.324 734.659 669.648C736.084 668.209 737.159 665.732 737.19 663.714C737.407 649.553 737.332 635.386 737.274 621.222C737.268 619.801 737.249 617.824 736.388 617.054C731.092 612.317 726.093 606.869 719.98 603.5C706.886 596.283 693.176 590.183 679.715 583.633C675.14 581.407 672.469 578.155 672.891 572.675C673.21 568.534 672.957 564.348 672.965 560.182C672.982 552.047 677.087 547.98 685.369 547.916C688.535 547.892 691.702 547.871 694.867 547.93C700.003 548.025 704.803 552.867 704.849 558C704.89 562.597 704.858 567.195 704.858 571.794C716.083 571.794 726.49 571.794 737.25 571.794C737.25 562.636 737.48 553.82 737.102 545.029C736.996 542.564 735.646 539.663 733.93 537.846C728.675 532.281 723.081 527.014 717.356 521.928C715.816 520.56 713.354 519.619 711.286 519.562C701.794 519.298 692.213 520.184 682.812 519.217C669.243 517.821 658.049 520.854 649.659 532.166C648 534.402 645.269 535.839 643.586 538.064C642.211 539.882 640.905 542.311 640.866 544.492C640.6 559.485 640.651 574.485 640.684 589.483C640.688 590.887 640.796 592.851 641.673 593.604C647.576 598.67 653.166 604.442 659.869 608.165C672.353 615.101 685.5 620.854 698.429 626.979C702.965 629.128 705.441 632.154 704.944 637.47C704.589 641.27 704.893 645.13 704.869 648.962C704.826 656.024 700.904 659.997 694.001 659.972C690.168 659.959 686.335 659.941 682.503 659.856C677.542 659.746 672.881 654.993 672.842 650.021C672.809 645.78 672.835 641.539 672.835 637.303C661.742 637.303 651.468 637.303 640.632 637.303C640.632 645.832 640.79 654.125 640.554 662.407C640.46 665.727 641.27 668.23 644.604 670.541ZM724.834 729.485C724.834 752.946 724.834 776.408 724.834 800.128C730.8 800.128 736.504 800.128 742.743 800.128C742.743 786.509 742.743 773.251 742.743 759.993C746.587 766.706 750.282 773.288 752.681 780.313C754.876 786.74 758.396 789.073 765.034 788.388C768.082 788.073 769.681 787.378 770.977 784.529C774.518 776.748 778.446 769.144 782.221 761.469C782.559 761.541 782.898 761.613 783.236 761.685C783.236 774.871 783.236 788.058 783.236 801.637C789.498 801.637 795.184 801.637 800.666 801.637C800.666 776.238 800.666 751.181 800.666 726.026C798.896 725.946 797.531 726.088 796.266 725.795C785.598 723.333 779.658 727.583 775.984 737.88C772.739 746.976 767.543 755.376 762.822 764.859C756.873 752.099 751.406 740.212 745.745 728.418C744.988 726.841 743.338 724.695 741.962 724.587C736.389 724.15 730.761 724.405 724.817 724.405C724.817 725.911 724.817 727.213 724.834 729.485ZM986.707 795.361C986.707 775.581 986.707 755.8 986.707 735.679C980.609 735.257 974.881 734.861 968.565 734.424C968.565 748.808 968.565 762.593 968.565 777.407C960.007 762.945 952.085 749.483 944.047 736.091C943.177 734.641 941.747 732.705 940.376 732.525C935.176 731.842 929.894 731.788 924.411 731.487C924.411 757.214 924.411 782.273 924.411 807.589C930.334 807.928 935.899 808.247 942.213 808.608C942.213 794.283 942.213 780.391 942.213 766.5C950.954 779.937 958.758 793.472 966.629 806.968C967.425 808.334 968.506 810.382 969.669 810.541C975.177 811.292 980.76 811.496 986.707 811.923C986.707 806.303 986.707 801.331 986.707 795.361ZM433.01 736.389C433.01 758.261 433.01 780.134 433.01 801.758C439.339 801.758 444.936 801.758 451.009 801.758C451.009 787.012 451.009 772.705 451.009 757.294C452.146 758.917 452.626 759.54 453.04 760.203C460.893 772.764 468.705 785.35 476.636 797.86C477.436 799.123 478.9 800.734 480.142 800.813C485.379 801.143 490.648 800.952 495.904 800.952C495.904 774.891 495.904 749.817 495.904 724.776C489.81 724.776 484.099 724.776 477.834 724.776C477.834 739.217 477.834 753.159 477.834 768.217C469.071 754.363 461.01 741.559 452.854 728.816C452.029 727.528 450.682 725.743 449.485 725.668C444.083 725.327 438.649 725.519 433.012 725.519C433.012 729.457 433.012 732.429 433.01 736.389ZM537.688 799.74C547.849 799.614 558.067 798.766 568.156 799.562C578.52 800.38 586.692 797.648 592.696 789.196C594.101 787.218 595.568 784.724 595.62 782.437C595.893 770.283 595.156 758.083 595.913 745.97C596.404 738.127 594.109 732.519 587.856 728.191C585.451 726.527 583.152 723.356 580.734 723.285C565.285 722.834 549.817 723.056 534.092 723.056C534.092 748.436 534.067 772.886 534.204 797.335C534.208 798.143 535.855 798.942 537.688 799.74ZM229.686 804.311C229.686 807.366 229.686 810.422 229.686 813.661C236.534 813.092 242.42 812.604 248.552 812.095C248.552 801.62 248.552 791.847 248.552 781.618C257.379 781.026 265.912 780.453 274.92 779.848C274.92 790.206 274.92 799.953 274.92 810.28C281.429 809.832 287.463 809.416 293.556 808.996C293.556 782.972 293.556 757.429 293.556 731.535C287.16 731.967 281.253 732.365 274.898 732.794C274.898 743.203 274.898 753.131 274.898 763.514C265.909 764.085 257.379 764.626 248.253 765.206C248.253 754.571 248.253 744.693 248.253 734.419C241.786 734.931 235.902 735.396 229.682 735.889C229.682 758.748 229.682 781.038 229.686 804.311ZM341.504 760.867C336.166 776.103 330.827 791.339 325.247 807.265C331.474 806.866 336.632 806.755 341.715 806.075C343.229 805.872 345.612 804.202 345.759 802.984C347.096 791.877 353.97 789.252 363.727 790.586C364.214 790.652 364.724 790.555 365.222 790.527C376.402 789.892 376.401 789.892 380.147 800.757C380.31 801.227 380.386 801.837 380.722 802.118C381.721 802.951 382.832 804.299 383.894 804.295C389.364 804.272 394.832 803.89 400.593 803.619C400.168 802.156 399.865 800.885 399.433 799.66C392.926 781.172 386.431 762.68 379.864 744.214C377.976 738.905 377.291 731.481 373.475 729.008C369.442 726.395 362.321 728.752 356.566 728.514C353.222 728.376 351.963 729.862 351.031 732.731C348.055 741.898 344.873 750.998 341.504 760.867ZM836.995 784.363C836.995 790.63 836.995 796.897 836.995 803.391C854.903 804.161 872.292 804.908 889.913 805.665C889.913 800.093 889.913 794.881 889.913 789.317C878.218 788.784 866.816 788.264 855.243 787.736C855.243 782.786 855.243 778.371 855.243 774.077C864.707 774.077 873.931 774.077 883.385 774.077C883.385 769.149 883.385 764.227 883.385 758.931C873.897 758.514 864.669 758.108 855.274 757.695C855.274 753.006 855.274 748.764 855.274 744.744C866.926 744.744 878.309 744.744 889.708 744.744C889.708 739.738 889.708 734.69 889.708 729.289C871.98 728.582 854.604 727.888 836.993 727.185C836.993 746.42 836.993 764.892 836.995 784.363ZM672.982 727.271C668.574 735.444 664.166 743.617 659.59 752.104C654.875 743.311 650.458 734.922 645.856 726.637C645.061 725.207 643.533 723.264 642.245 723.185C636.219 722.819 630.158 723.023 623.242 723.023C631.834 738.224 639.987 752.487 647.924 766.87C649.138 769.069 649.855 771.807 649.931 774.322C650.178 782.56 650.024 790.81 650.024 799.037C656.544 799.037 662.428 799.037 668.561 799.037C668.561 790.454 668.444 782.297 668.638 774.148C668.691 771.932 669.235 769.488 670.313 767.577C677.429 754.961 684.755 742.464 692.005 729.924C693.112 728.009 694.176 726.069 695.649 723.446C688.857 723.446 683.044 723.25 677.262 723.59C675.894 723.67 674.632 725.548 672.982 727.271ZM1077.12 769.51C1078.92 768.082 1080.73 766.653 1082.54 765.224C1076.01 764.073 1069.58 763.899 1063.17 764.146C1059.94 764.27 1058.47 763.137 1057.52 760.077C1055.7 754.18 1053.44 748.419 1050.95 741.476C1047.89 749.793 1045.31 756.768 1042.48 764.454C1034.91 764.454 1027.23 764.454 1018.27 764.454C1024.45 769.251 1029.32 773.272 1034.46 776.927C1037.11 778.813 1037.51 780.59 1036.44 783.607C1034.35 789.528 1032.75 795.624 1030.59 802.841C1038.08 797.758 1044.38 793.48 1050.86 789.078C1057.38 793.492 1063.83 797.866 1071.39 802.983C1070.3 799.301 1069.66 797.091 1068.99 794.889C1067.49 789.96 1063.8 784.346 1065.08 780.297C1066.42 776.055 1072.52 773.317 1077.12 769.51ZM156.161 797.152C158.598 798.797 161.035 800.443 164.679 802.903C162.365 795.427 160.645 789.239 158.499 783.203C157.478 780.33 158.023 778.741 160.489 776.999C165.75 773.282 170.763 769.216 175.877 765.293C175.726 764.862 175.576 764.432 175.425 764.001C168.968 764.001 162.506 763.843 156.058 764.073C153.196 764.176 151.967 763.134 151.121 760.516C149.147 754.406 146.872 748.393 144.36 741.331C141.922 748.045 139.573 753.714 137.843 759.567C136.739 763.303 134.85 764.398 131.087 764.183C125.142 763.844 119.164 764.093 113.199 764.093C113.167 764.542 113.134 764.991 113.101 765.441C119.073 770.128 125.045 774.815 130.989 779.481C128.675 787.065 126.451 794.353 123.846 802.887C127.681 800.319 130.285 798.589 132.876 796.837C136.589 794.325 140.313 789.79 143.995 789.827C147.869 789.866 151.699 794.272 156.161 797.152ZM252.461 860.077C279.236 860.077 306.01 860.077 332.823 860.077C332.823 857.165 332.823 854.799 332.823 852.439C285.733 852.439 239.022 852.439 192.329 852.439C192.329 855.112 192.329 857.376 192.329 860.074C212.218 860.074 231.84 860.074 252.461 860.077ZM938.461 860.09C956.682 860.09 974.903 860.09 993.132 860.09C993.132 857.06 993.132 854.794 993.132 852.342C947.665 852.342 902.48 852.342 857.244 852.342C857.244 855.035 857.244 857.413 857.244 860.091C884.217 860.091 910.839 860.091 938.461 860.09ZM527.067 861.1C532.172 855.785 533.331 849.347 532.581 842.286C532.248 839.152 527.806 833.155 524.749 833.059C516.334 832.797 507.906 832.969 499.346 832.969C499.346 846.586 499.346 859.637 499.346 872.616C502.739 872.616 505.783 872.616 509.162 872.616C509.162 868.44 509.162 864.663 509.162 861.084C514.755 859.148 517.22 861.745 519.304 866.319C522.804 874.001 524.502 874.495 533.197 872.227C531.257 868.71 529.34 865.233 527.067 861.1ZM455.45 848.931C453.185 848.931 450.921 848.931 448.42 848.931C448.545 846.183 448.64 844.107 448.753 841.626C455.488 841.626 461.751 841.626 468.215 841.626C468.215 838.482 468.215 835.786 468.215 833.223C458.239 833.223 448.658 833.223 439.051 833.223C439.051 846.636 439.051 859.7 439.051 872.814C448.94 872.814 458.522 872.814 468.139 872.814C468.139 870.014 468.139 867.491 468.139 864.568C461.451 864.568 455.172 864.568 448.873 864.568C448.873 861.925 448.873 859.699 448.873 857.165C454.361 857.165 459.474 857.165 464.697 857.165C464.697 854.308 464.697 851.772 464.697 848.928C461.713 848.928 459.073 848.928 455.45 848.931ZM405.833 841.033C405.833 838.447 405.833 835.861 405.833 832.918C398.969 832.918 392.345 833.021 385.725 832.884C380.902 832.784 378.806 836.521 376.524 839.53C374.728 841.898 376.667 851.814 378.177 853.638C382.561 858.936 388.519 856.948 393.957 857.226C396.571 857.359 398.409 857.559 398.337 861C398.267 864.332 396.591 864.779 393.894 864.73C388.303 864.628 382.709 864.699 376.989 864.699C376.989 867.752 376.989 870.175 376.989 873.026C384.95 873.026 392.719 873.063 400.487 872.974C401.367 872.964 402.351 872.389 403.094 871.824C406.418 869.295 407.687 866.206 408.041 861.728C408.72 853.123 402.941 847.686 394.823 848.855C393.031 849.113 390.958 849.386 389.401 848.732C387.969 848.131 386.292 846.358 386.173 844.977C386.087 843.975 388.301 841.908 389.605 841.806C394.732 841.406 399.905 841.596 405.833 841.033ZM740.484 873.032C746.729 873.032 752.973 873.032 759.227 873.032C759.227 869.918 759.227 867.493 759.227 864.583C752.682 864.583 746.42 864.583 740.078 864.583C740.078 861.974 740.078 859.857 740.078 857.046C745.468 857.046 750.674 857.046 755.648 857.046C755.648 853.948 755.648 851.554 755.648 848.71C750.182 848.71 745.1 848.71 740.145 848.71C740.145 846.152 740.145 844.073 740.145 841.458C746.682 841.458 752.904 841.458 759.15 841.458C759.15 838.325 759.15 835.741 759.15 833.181C749.403 833.181 739.98 833.181 730.283 833.181C730.283 846.529 730.283 859.585 730.283 873.036C733.564 873.036 736.53 873.036 740.484 873.032ZM820.043 863.132C820.037 862.3 820.029 861.469 820.027 860.637C820.005 852.004 816.886 848.927 808.156 848.915C806.327 848.912 804.497 848.844 802.669 848.877C800.052 848.923 798.122 848.429 798.131 845.107C798.141 841.581 800.392 841.623 802.847 841.635C807.923 841.66 812.999 841.642 817.951 841.642C817.951 838.384 817.951 835.819 817.951 832.935C810.801 832.935 804.006 832.863 797.215 833.003C796.046 833.027 794.789 833.794 793.757 834.49C790.106 836.951 788.359 840.058 788.623 844.862C789.159 854.629 791.456 857.187 801.426 857.159C803.089 857.154 804.752 857.184 806.415 857.156C809.126 857.111 810.771 857.903 810.792 861.124C810.814 864.628 808.737 864.748 806.215 864.732C800.618 864.698 795.02 864.721 789.365 864.721C789.365 867.847 789.365 870.382 789.365 873.039C796.874 873.039 804.02 873.065 811.166 873.03C816.168 873.005 819.798 869.284 820.043 863.132ZM592.822 832.892C591.509 833.994 589.517 834.842 588.997 836.239C585.998 844.293 583.347 852.477 580.251 861.578C576.846 851.308 573.792 842.095 570.813 833.109C567.117 833.109 564.003 833.109 560.268 833.109C564.877 846.605 569.361 859.733 573.905 873.038C576.661 873.038 579.174 872.791 581.617 873.095C585.381 873.563 587.251 872.312 588.212 868.462C589.535 863.165 591.564 858.04 593.347 852.862C595.592 846.344 597.895 839.846 600.332 832.883C597.666 832.883 595.683 832.883 592.822 832.892ZM697.091 841.585C703.148 840.367 698.498 836.07 700.281 832.911C692.342 832.911 685.221 832.787 678.108 832.963C674.485 833.052 669.808 838.344 669.789 842.039C669.751 849.529 669.78 857.02 669.82 864.51C669.845 869.306 673.393 872.34 677.009 872.765C684.493 873.643 692.151 873.03 699.702 873.03C699.702 869.872 699.702 867.464 699.702 864.724C694.267 864.724 689.135 864.681 684.004 864.74C680.916 864.775 679.391 863.49 679.453 860.273C679.545 855.448 679.513 850.619 679.448 845.792C679.409 842.854 680.717 841.553 683.675 841.616C687.834 841.704 691.997 841.621 697.091 841.585ZM638.602 866.235C638.602 855.272 638.602 844.31 638.602 833.185C635.05 833.185 632.004 833.185 628.98 833.185C628.98 846.563 628.98 859.64 628.98 872.811C632.236 872.811 635.176 872.811 638.597 872.811C638.597 870.797 638.597 868.996 638.602 866.235Z" fill="#FCFBFC"/>
<path d="M595.05 1060.78C565.483 1035.1 536.181 1009.66 506.889 984.224C498.723 992.33 490.621 1000.37 482.214 1008.72C530.991 1056.26 579.715 1103.75 628.439 1151.25C628.283 1151.64 628.128 1152.03 627.972 1152.42C605.338 1152.42 582.703 1152.42 560.068 1152.42C559.928 1151.96 559.788 1151.5 559.649 1151.05C569.186 1141.87 578.724 1132.69 588.015 1123.75C577.233 1112.51 566.553 1101.38 555.554 1089.92C553.795 1091.32 552.365 1092.37 551.042 1093.53C533.662 1108.84 516.244 1124.1 498.988 1139.54C496.566 1141.71 494.501 1142.12 491.424 1141.43C397.55 1120.55 314.783 1077.89 242.661 1014.47C204.764 981.143 172.68 942.765 145.06 900.595C144.254 899.364 143.545 898.07 142.437 896.212C442.557 896.212 742.158 896.212 1042.32 896.212C1041.6 897.513 1041 898.769 1040.26 899.938C992.249 975.784 929.769 1036.76 852.27 1082.13C802.512 1111.26 749.158 1131.07 692.558 1142.03C690.534 1142.43 687.58 1141.63 686.021 1140.27C655.7 1113.95 625.523 1087.46 595.05 1060.78ZM683.537 1040.93C688.428 1036.91 693.431 1033.03 698.164 1028.84C700.724 1026.57 703.178 1026.29 706.381 1027.13C711.511 1028.48 716.73 1029.89 721.987 1030.3C765.605 1033.71 796.538 993.18 784.538 951.188C783.581 951.981 782.669 952.66 781.845 953.432C770.052 964.472 758.278 975.532 746.482 986.57C743.059 989.773 739.024 989.949 735.968 986.874C728.924 979.787 721.924 972.655 714.999 965.452C711.072 961.368 711.306 956.238 715.417 952.316C719.152 948.752 723.143 945.427 726.628 941.635C734.368 933.217 741.861 924.573 749.108 916.412C734.277 911.382 717.76 912.333 701.926 920.317C678.509 932.124 667.042 955.375 670.271 983.82C670.661 987.258 669.834 989.303 667.265 991.469C651.1 1005.1 635.048 1018.87 618.998 1032.64C611.5 1039.08 604.09 1045.61 596.471 1052.25C608.739 1063.1 620.45 1073.45 632.241 1083.88C649.314 1069.59 666.156 1055.49 683.537 1040.93ZM392.099 1022.22C400.672 1030.6 409.237 1038.99 417.82 1047.36C421.799 1051.24 423.266 1051.19 427.254 1047.16C431.118 1043.25 434.81 1039.15 438.905 1035.51C442.255 1032.52 443.395 1029.72 441.84 1025.14C439.637 1018.65 442.712 1011.49 448.311 1007.62C454.34 1003.45 461.07 1003.17 466.926 1007.3C470.031 1009.49 472.115 1009.1 474.604 1006.39C479.775 1000.74 485.226 995.353 490.533 989.831C494.411 985.796 498.242 981.716 502.292 977.448C499.369 974.684 496.986 972.103 494.272 969.937C489.531 966.153 488.178 961.09 490.724 956.144C493.462 950.823 496.939 945.367 501.442 941.569C513.012 931.809 527.212 929.009 542.021 928.559C543.712 928.508 545.367 927.228 547.038 926.518C545.868 925.278 544.927 923.572 543.494 922.869C519.594 911.146 495.206 910.434 470.417 919.905C452.214 926.86 438.872 939.905 426.508 954.358C423.472 957.906 422.609 960.981 423.584 965.542C426.395 978.693 416.179 989.811 402.901 988.765C401.355 988.643 399.275 989.309 398.187 990.373C392.952 995.49 388.001 1000.9 382.888 1006.14C380.437 1008.66 380.335 1010.95 382.981 1013.39C385.913 1016.11 388.731 1018.94 392.099 1022.22Z" fill="#0A295C"/>
<path d="M1051.45 326.359C1080.83 377.004 1101.98 430.485 1115.15 487.543C1108.53 487.543 1102.41 487.543 1096.21 487.543C1092.61 475.199 1089.32 462.819 1085.38 450.647C1049.29 339.039 985.951 246.437 892.045 175.551C820.925 121.866 740.854 89.5492 652.339 79.3918C555.018 68.2239 462.014 84.6058 373.829 127.123C285.567 169.678 216.371 233.884 162.953 315.534C129.401 366.816 104.795 422.117 89.7383 481.564C88.4906 486.491 86.6663 488.544 81.4518 487.852C77.4123 487.316 73.2447 487.745 68.5137 487.745C70.7581 479.097 72.6534 471.014 74.9535 463.048C108.032 348.491 168.976 251.661 260.753 175.236C339.911 109.319 431.441 71.2317 533.665 58.8066C615.231 48.8924 694.687 57.9983 771.779 86.2604C862.205 119.41 936.858 174.772 997.963 248.829C1017.94 273.036 1035.68 298.798 1051.45 326.359Z" fill="#CA0720"/>
<path d="M691.822 465.975C660.087 445.397 628.625 425.061 597.297 404.519C593.758 402.198 591.33 402.004 587.673 404.391C543.189 433.422 498.581 462.264 454.007 491.156C452.527 492.116 451.059 493.094 448.59 494.718C466.545 441.922 484.11 390.272 501.806 338.237C458.893 304.924 416.165 271.753 372.612 237.943C375.517 237.943 377.727 237.939 379.938 237.943C431.764 238.038 483.591 238.051 535.415 238.371C540.187 238.4 541.879 236.782 543.37 232.592C559.202 188.077 575.245 143.637 591.242 99.1814C591.734 97.8157 592.37 96.5022 593.289 94.3391C598.453 107.958 603.349 120.756 608.16 133.586C620.541 166.604 632.963 199.607 645.139 232.7C646.627 236.743 648.347 238.213 652.832 238.189C702.158 237.925 751.484 237.926 800.811 237.855C802.738 237.853 804.664 237.855 807.413 237.855C764.716 271.678 722.768 304.907 680.64 338.279C698.821 390.105 716.888 441.606 735.409 494.398C720.307 484.542 706.22 475.349 691.822 465.975ZM593.078 311.383C593.109 311.568 593.14 311.753 593.037 312.532C593.045 312.937 593.054 313.342 592.933 314.342C593 314.533 593.067 314.724 592.958 315.832C592.947 339.997 592.996 364.161 592.858 388.325C592.839 391.744 594.028 393.653 596.905 395.5C636.434 420.868 675.87 446.381 715.345 471.832C716.223 472.398 717.296 472.659 718.758 473.26C718.288 472.006 718.061 471.399 717.987 470.012C717.562 468.238 717.289 466.411 716.69 464.698C703.172 426.035 689.511 387.422 676.174 348.697C673.951 342.242 671.499 336.817 663.964 335.323C663.964 335.323 663.951 334.868 664.72 334.888C670.552 337.962 674.831 335.935 679.748 331.905C712.917 304.717 746.39 277.902 779.732 250.926C780.688 250.152 781.273 248.919 781.989 247.921C781.989 247.921 781.944 247.909 782.459 248.016C782.611 247.483 782.762 246.95 783.183 245.854C782.282 245.517 781.38 244.886 780.479 244.885C736.711 244.845 692.943 244.844 649.176 244.934C647.782 244.936 646.39 245.937 644.444 246.911C640.206 252.242 635.973 257.577 631.728 262.902C623.477 273.255 615.219 283.602 606.303 293.421C616.891 277.696 627.426 261.934 638.124 246.283C639.788 243.848 640.322 241.832 639.156 239.002C636.88 233.477 635.044 227.771 632.935 222.174C623.099 196.07 613.232 169.977 603.257 143.24C602.22 140.759 601.184 138.278 600.107 135.058C599.504 133.732 598.901 132.406 598.338 130.966C598.338 130.966 598.306 130.85 598.196 130.125C597.33 127.975 596.464 125.826 595.441 122.965C594.853 121.705 594.264 120.445 593.249 118.27C593.249 120.867 593.249 122.433 593.079 124.753C593.105 130.457 593.131 136.16 592.999 142.773C593.062 146.471 593.125 150.169 593.019 154.79C593.003 174.223 592.955 193.656 592.98 213.09C593.008 233.68 593.106 254.271 593.01 275.708C593.064 277.428 593.118 279.147 592.999 281.784C593.049 286.477 593.099 291.17 592.988 296.752C593.047 299.456 593.106 302.16 592.996 305.652C593.033 306.723 593.071 307.793 592.954 309.372C593.007 309.541 593.061 309.71 593.008 310.367C593.008 310.367 593.191 310.831 593.078 311.383ZM572.636 318.951C552.98 325.227 533.298 331.421 513.712 337.907C511.778 338.547 509.607 340.692 508.943 342.619C495.989 380.246 483.229 417.94 470.47 455.633C468.785 460.611 467.316 465.663 465.748 470.68C465.994 470.805 466.241 470.93 466.487 471.055C508.249 418.839 550.011 366.622 591.773 314.405C591.624 314.108 591.475 313.81 591.326 313.513C585.354 315.257 579.381 317.001 572.636 318.951ZM521.421 288.988C544.875 296.719 568.328 304.449 591.781 312.179C591.781 311.901 591.913 311.488 591.762 311.288C576.242 290.666 560.754 270.02 545.052 249.537C543.911 248.047 541.22 247.01 539.245 247.003C494.761 246.85 450.277 246.871 405.793 246.859C404.466 246.859 403.14 246.859 401.813 246.859C401.756 247.313 401.699 247.766 401.643 248.219C441.316 261.735 480.989 275.25 521.421 288.988Z" fill="#0E2C5E"/>
<path d="M440.611 663.78C448.359 666.05 451.189 671.137 449.834 679.053C449.314 682.091 449.749 685.292 449.749 688.782C434.434 689.216 419.664 689.731 404.89 689.87C403.678 689.881 402.006 687.523 401.283 685.932C388.711 658.239 376.256 630.493 363.763 602.764C363.053 601.188 362.234 599.66 360.705 598.275C360.705 607.507 360.71 616.739 360.704 625.971C360.696 637.799 360.829 649.63 360.577 661.453C360.499 665.15 361.543 667.554 365.047 668.677C368.846 669.895 369.9 672.41 369.609 676.287C369.24 681.214 369.52 686.19 369.52 691.483C352.041 692.252 335.159 692.995 317.834 693.757C317.834 687.056 317.409 680.731 318.088 674.527C318.297 672.619 321.297 670.653 323.425 669.411C326.082 667.861 326.959 666.043 326.916 663.013C326.652 644.53 326.47 626.043 326.486 607.558C326.501 588.741 326.696 569.923 327.012 551.109C327.067 547.868 326.544 545.631 323.145 544.705C318.945 543.562 317.679 540.804 318.026 536.492C318.45 531.232 318.127 525.912 318.127 519.92C326.699 519.92 334.801 519.922 342.904 519.919C348.401 519.917 353.909 520.107 359.392 519.826C362.579 519.663 363.961 520.862 365.242 523.712C378.397 552.971 391.725 582.152 405.013 611.35C405.328 612.041 405.745 612.685 407.04 613.218C407.04 606.841 407.043 600.464 407.04 594.087C407.033 579.594 406.925 565.099 407.088 550.608C407.127 547.217 406.496 544.841 402.942 543.891C398.928 542.819 397.759 540.16 398.044 536.089C398.412 530.832 398.134 525.53 398.134 519.977C415.476 519.977 432.248 519.977 449.824 519.977C449.824 526.33 450.02 532.757 449.656 539.152C449.584 540.417 447.461 541.696 446.098 542.72C444.644 543.812 442.969 544.61 440.697 545.82C439.659 547.3 439.015 548.496 439.013 549.694C438.96 586.317 438.951 622.941 439.039 659.564C439.042 660.971 440.064 662.375 440.611 663.78Z" fill="#0C2A5D"/>
<path d="M1047.92 633.963C1047.88 647.616 1048.04 660.78 1047.75 673.934C1047.67 677.773 1048.64 680.366 1052.12 681.878C1055.46 683.327 1056.52 685.723 1056.32 689.368C1055.99 695.312 1056.23 701.287 1056.23 707.574C1038.79 705.808 1021.81 704.089 1004.23 702.309C1004.23 695.361 1004.01 688.589 1004.42 681.856C1004.5 680.552 1006.84 678.888 1008.47 678.278C1012.13 676.907 1013.26 674.776 1013.25 670.808C1013.07 631.663 1013.09 592.516 1013.23 553.369C1013.24 549.615 1012.57 546.987 1008.78 545.662C1005.05 544.357 1003.62 541.792 1003.91 537.672C1004.31 532.045 1004.01 526.37 1004.01 520.326C1005.46 520.209 1006.72 520.004 1007.97 520.022C1033.79 520.389 1059.61 520.692 1085.42 521.303C1088.06 521.366 1091.2 522.704 1093.16 524.488C1099.44 530.193 1105.44 536.243 1111.19 542.482C1112.77 544.199 1113.91 547.032 1113.94 549.367C1114.16 568.522 1113.99 587.681 1114.13 606.837C1114.16 609.961 1113.24 612.047 1110.91 614.117C1105.55 618.87 1100.56 624.023 1095.29 628.871C1093.36 630.646 1092.71 632.204 1093.61 634.906C1098.95 651.029 1103.96 667.265 1109.4 683.352C1110.15 685.558 1112.4 687.777 1114.53 688.879C1118.34 690.847 1119.59 693.383 1119.33 697.582C1118.96 703.847 1119.24 710.15 1119.24 716.754C1106.94 714.882 1095.27 713.186 1083.65 711.212C1082.5 711.018 1081.13 709.287 1080.73 707.998C1073.41 684.663 1066.22 661.288 1059.02 637.915C1057.29 632.291 1054.3 631.066 1047.92 633.963ZM1066.33 602.779C1073.67 602.972 1079.62 598.719 1079.68 592.965C1079.8 582.64 1080.39 572.244 1079.36 562.022C1079 558.437 1074.87 552.964 1071.71 552.38C1064.07 550.966 1055.99 551.92 1048.16 551.92C1048.16 568.514 1048.16 585.096 1048.16 601.854C1054.11 602.166 1059.75 602.461 1066.33 602.779Z" fill="#0C2A5D"/>
<path d="M287.22 532.606C295.943 538.413 298.007 546.098 297.825 556.17C297.158 593.148 297.49 630.145 297.582 667.135C297.591 670.56 296.705 673.029 294.191 675.433C288.172 681.188 282.564 687.375 276.553 693.14C275.043 694.588 272.693 695.765 270.633 695.941C254.196 697.342 237.744 698.599 221.276 699.548C218.823 699.689 215.752 698.61 213.847 697.032C207.566 691.83 201.587 686.244 195.733 680.557C194.388 679.251 193.285 676.957 193.281 675.116C193.199 632.62 193.259 590.124 193.425 547.629C193.431 545.871 194.269 543.683 195.48 542.435C201.863 535.862 208.387 529.416 215.113 523.196C216.616 521.806 219.111 520.845 221.172 520.805C237 520.495 252.837 520.583 268.665 520.258C272.622 520.177 275.641 520.985 278.311 524.062C280.918 527.069 284.059 529.614 287.22 532.606ZM227.007 558.121C226.662 559.484 226.016 560.846 226.014 562.209C225.957 594.006 225.95 625.803 226.036 657.599C226.04 659.01 227.003 660.419 228.039 662.327C231.953 667.451 237.05 669.049 243.334 667.852C246.423 667.264 249.633 667.312 252.788 667.076C257.485 666.724 262.587 661.316 262.6 656.517C262.684 624.542 262.74 592.568 262.792 560.593C262.797 557.355 258.247 550.407 255.349 550.537C245.683 550.97 234.687 547.052 227.007 558.121Z" fill="#0C2A5D"/>
<path d="M960.99 571.755C968.065 604.194 975.125 636.204 981.972 668.26C982.8 672.139 984.134 675.182 987.902 676.645C991.291 677.961 991.941 680.407 991.795 683.753C991.55 689.361 991.728 694.987 991.728 700.989C974.811 699.718 958.43 698.488 941.379 697.207C941.379 690.236 941.23 683.474 941.531 676.733C941.579 675.659 943.484 674.155 944.808 673.747C948.937 672.476 949.599 669.945 948.576 666.16C947.536 662.315 946.835 658.379 945.853 653.873C935.803 653.426 925.719 652.918 915.628 652.639C914.815 652.617 913.524 654.026 913.206 655.012C912.391 657.535 912.237 660.275 911.388 662.783C909.879 667.235 910.782 670.237 915.367 672.206C916.587 672.729 917.735 674.909 917.799 676.378C918.068 682.514 917.913 688.67 917.913 695.585C901.749 694.793 885.906 694.015 869.543 693.213C869.543 686.622 869.363 680.344 869.686 674.092C869.756 672.753 871.397 670.851 872.743 670.339C877.181 668.654 878.761 665.484 879.756 661.053C888.143 623.677 896.789 586.359 905.214 548.991C905.562 547.449 905.059 544.765 903.986 544.037C901.216 542.156 900.646 539.89 900.738 536.855C900.904 531.375 900.785 525.885 900.785 519.991C920.754 519.991 940.461 519.991 960.865 519.991C960.865 526.945 960.886 533.876 960.828 540.806C960.823 541.379 960.431 542.287 959.987 542.467C954.212 544.806 956.077 549.107 957.03 553.282C958.4 559.284 959.624 565.319 960.99 571.755ZM926.133 589.451C923.79 600.939 921.447 612.426 918.979 624.528C926.752 624.528 933.659 624.528 940.819 624.528C937.313 607.091 933.826 589.752 930.339 572.414C930.071 572.39 929.802 572.366 929.534 572.342C928.451 577.764 927.368 583.187 926.133 589.451Z" fill="#0C2A5D"/>
<path d="M543.779 588.844C544.88 589.605 546.02 590.361 546.032 591.135C546.16 599.596 546.112 608.061 546.112 617.047C535.046 617.047 524.307 617.047 513.239 617.047C513.239 631.312 513.239 645.053 513.239 659.108C522.477 659.108 531.743 659.108 541.436 659.108C541.924 653.534 542.397 648.13 542.902 642.356C551.703 642.356 560.4 642.356 569.353 642.356C569.353 657.104 569.353 671.691 569.353 687.292C536.146 687.292 503.087 687.292 469.428 687.292C469.428 681.935 469.261 675.84 469.569 669.768C469.631 668.548 471.279 666.914 472.58 666.337C477.768 664.036 478.94 660.221 478.765 654.792C478.216 637.818 478.022 620.827 478.027 603.843C478.032 586.193 478.323 568.541 478.742 550.896C478.829 547.26 478.139 544.818 474.434 543.733C470.578 542.603 469.076 540.195 469.439 535.972C469.891 530.722 469.548 525.403 469.548 519.836C503.107 519.836 536.208 519.836 569.625 519.836C569.625 534.673 569.625 549.565 569.625 564.726C560.756 564.726 552.009 564.726 542.85 564.726C542.41 559.227 541.978 553.83 541.526 548.181C532.105 548.181 522.856 548.181 513.253 548.181C513.253 561.478 513.253 574.733 513.253 588.847C523.146 588.847 533.22 588.847 543.779 588.844Z" fill="#0B2A5C"/>
<path d="M644.324 670.292C641.27 668.23 640.46 665.726 640.555 662.407C640.79 654.125 640.632 645.832 640.632 637.303C651.468 637.303 661.742 637.303 672.836 637.303C672.836 641.539 672.809 645.78 672.842 650.021C672.881 654.993 677.542 659.746 682.503 659.856C686.335 659.941 690.168 659.959 694.001 659.972C700.904 659.997 704.826 656.024 704.869 648.962C704.893 645.13 704.589 641.27 704.944 637.47C705.441 632.153 702.965 629.127 698.429 626.979C685.5 620.854 672.353 615.101 659.869 608.165C653.166 604.442 647.576 598.67 641.673 593.603C640.797 592.851 640.688 590.887 640.685 589.483C640.651 574.485 640.6 559.485 640.866 544.491C640.905 542.311 642.211 539.882 643.586 538.064C645.269 535.839 648 534.402 649.659 532.166C658.049 520.854 669.243 517.821 682.812 519.217C692.213 520.184 701.794 519.298 711.286 519.562C713.354 519.619 715.816 520.56 717.356 521.928C723.081 527.014 728.675 532.281 733.93 537.846C735.646 539.663 736.996 542.564 737.102 545.029C737.48 553.82 737.25 562.636 737.25 571.794C726.49 571.794 716.083 571.794 704.858 571.794C704.858 567.195 704.89 562.597 704.849 558C704.803 552.867 700.003 548.025 694.867 547.93C691.702 547.871 688.535 547.892 685.369 547.916C677.087 547.98 672.982 552.047 672.965 560.182C672.957 564.348 673.21 568.534 672.891 572.675C672.469 578.155 675.14 581.407 679.715 583.633C693.177 590.183 706.886 596.283 719.98 603.5C726.093 606.869 731.092 612.317 736.388 617.054C737.249 617.824 737.268 619.801 737.274 621.222C737.332 635.386 737.407 649.553 737.19 663.714C737.159 665.732 736.084 668.209 734.659 669.648C729.034 675.324 723.161 680.766 717.179 686.068C715.857 687.239 713.714 688.066 711.95 688.066C696.62 688.059 681.289 687.893 665.962 687.573C664.182 687.535 662.068 686.679 660.726 685.499C655.222 680.661 649.957 675.551 644.324 670.292Z" fill="#0B295C"/>
<path d="M78.7008 551.917C78.4523 551.695 78.2388 551.352 77.9503 551.268C68.7754 548.624 67.2783 541.998 68.4101 533.646C68.9153 529.917 68.4955 526.063 68.4955 521.799C87.6078 521.799 106.203 521.799 125.387 521.799C125.387 528.585 125.681 535.542 125.165 542.438C125.047 544.017 122.375 545.936 120.473 546.743C116.005 548.638 114.777 551.52 114.802 556.359C115.004 595.682 114.875 635.007 114.848 674.331C114.847 675.97 114.848 677.608 114.848 679.596C125.164 678.405 135.025 677.266 145.35 676.073C145.987 668.114 146.606 660.39 147.268 652.13C156.106 651.229 164.974 650.325 174.338 649.37C174.338 667.656 174.338 685.532 174.338 703.773C139.29 708.258 104.042 712.768 68.2269 717.351C68.2269 710.023 67.9382 702.561 68.4452 695.153C68.5611 693.46 71.3511 691.874 73.0424 690.389C74.4135 689.185 75.9827 688.207 78.1639 686.879C79.2281 685.113 79.9088 683.597 79.9108 682.08C79.9676 640.174 79.9682 598.268 79.9018 556.362C79.8995 554.88 79.1187 553.399 78.7008 551.917Z" fill="#0D2B5E"/>
<path d="M847.711 561.867C847.149 557.468 846.588 553.069 845.953 548.101C840.941 548.101 836.023 548.101 830.247 548.087C828.913 549.51 828.024 550.946 828.021 552.383C827.949 588.48 827.952 624.577 828.045 660.673C828.049 662.058 829.074 663.441 829.624 664.825C837.943 668.121 839.785 674.567 838.587 682.716C838.182 685.467 838.523 688.327 838.523 691.819C820.873 691.237 803.69 690.671 786.104 690.092C786.104 683.587 785.832 677.431 786.297 671.33C786.412 669.822 788.674 667.925 790.373 667.201C794.292 665.53 795.497 663.058 795.474 658.794C795.287 623.827 795.361 588.859 795.355 553.891C795.355 552.104 795.355 550.317 795.355 548.281C789.599 548.281 784.345 548.281 778.864 548.281C778.306 553.885 777.767 559.3 777.203 564.968C769.496 564.968 762.187 564.968 754.419 564.403C753.961 551.352 754.147 538.863 753.861 526.384C753.761 522.021 754.93 520.742 759.403 520.765C795.027 520.95 830.652 520.867 866.277 520.867C867.276 520.867 868.463 520.543 869.228 520.969C870.298 521.566 871.815 522.715 871.828 523.647C872.002 535.764 871.944 547.884 871.944 560.277C869.273 559.727 867.065 559.272 864.937 558.833C862.625 564.538 853.357 565.958 847.711 561.867Z" fill="#0D2C5E"/>
<path d="M128.738 436.769C131.919 428.387 134.934 419.935 138.453 411.698C138.995 410.431 141.85 409.519 143.639 409.512C183.287 409.369 222.935 409.358 262.583 409.359C323.722 409.361 384.86 409.39 445.999 409.407C447.161 409.407 448.323 409.407 450.335 409.407C447.071 419.135 443.934 428.486 440.178 437.651C437.601 437.267 435.643 436.896 433.684 436.894C396.857 436.859 360.03 436.877 323.203 436.864C258.381 436.84 193.56 436.802 128.738 436.769Z" fill="#CA0620"/>
<path d="M739.254 429.813C736.987 423.258 734.721 416.704 732.199 409.41C736.685 409.41 740.318 409.41 743.951 409.41C842.11 409.425 940.268 409.474 1038.43 409.34C1042.71 409.334 1044.64 410.761 1045.99 414.543C1048.11 420.49 1050.67 426.281 1052.91 432.589C1052.96 433.158 1053.15 433.274 1053.33 433.39C1053.33 433.39 1053.38 433.491 1053.24 433.934C1050.83 435.233 1048.57 436.835 1046.3 436.838C948.802 436.964 851.307 436.919 753.812 437.023C747.68 437.029 741.806 437.559 739.717 429.956C739.694 429.872 739.414 429.859 739.254 429.813Z" fill="#C9031D"/>
<path d="M1066.12 471.887C1067.08 474.623 1068.04 477.36 1068.75 480.705C1068.49 482.713 1068.49 484.112 1068.49 485.903C1066.66 485.903 1065.19 485.903 1063.71 485.903C964.126 485.904 864.541 485.912 764.956 485.862C762.678 485.861 760.401 485.202 758.124 484.849C756.702 480.696 755.198 476.567 753.951 472.361C753.773 471.761 754.843 470.79 755.802 470.467C758.323 471.248 760.379 471.818 762.434 471.819C863.662 471.872 964.89 471.877 1066.12 471.887Z" fill="#0D2C5E"/>
<path d="M114.922 478.854C115.274 477.418 115.626 475.982 116.532 474.203C119.419 473.186 121.752 471.925 124.085 471.922C223.574 471.825 323.064 471.823 422.553 471.967C424.383 471.969 426.21 473.873 428.038 474.889C427.054 477.985 426.071 481.082 424.506 484.528C421.144 485.221 418.364 485.86 415.583 485.862C318.349 485.914 221.115 485.906 123.881 485.907C116.143 485.907 116.145 485.909 115.272 479.198C115.255 479.07 115.043 478.968 114.922 478.854Z" fill="#09295C"/>
<path d="M724.825 729C724.817 727.213 724.817 725.911 724.817 724.405C730.761 724.405 736.389 724.15 741.962 724.587C743.338 724.695 744.988 726.841 745.745 728.418C751.406 740.212 756.873 752.099 762.822 764.859C767.543 755.376 772.739 746.976 775.984 737.88C779.658 727.584 785.598 723.333 796.266 725.795C797.531 726.088 798.896 725.946 800.666 726.026C800.666 751.181 800.666 776.238 800.666 801.637C795.184 801.637 789.498 801.637 783.236 801.637C783.236 788.058 783.236 774.871 783.236 761.685C782.898 761.613 782.559 761.541 782.221 761.469C778.446 769.144 774.518 776.748 770.977 784.529C769.681 787.378 768.082 788.073 765.034 788.388C758.396 789.073 754.876 786.74 752.681 780.313C750.282 773.288 746.587 766.706 742.743 759.993C742.743 773.251 742.743 786.509 742.743 800.128C736.504 800.128 730.8 800.128 724.834 800.128C724.834 776.408 724.834 752.946 724.825 729Z" fill="#C9071F"/>
<path d="M986.707 795.86C986.707 801.331 986.707 806.303 986.707 811.923C980.76 811.496 975.177 811.292 969.669 810.541C968.506 810.382 967.425 808.334 966.629 806.968C958.758 793.472 950.954 779.937 942.213 766.5C942.213 780.391 942.213 794.283 942.213 808.608C935.899 808.247 930.334 807.928 924.411 807.589C924.411 782.273 924.411 757.214 924.411 731.487C929.894 731.788 935.176 731.842 940.376 732.525C941.747 732.705 943.177 734.641 944.047 736.091C952.085 749.483 960.007 762.945 968.565 777.407C968.565 762.593 968.565 748.808 968.565 734.424C974.881 734.861 980.609 735.257 986.707 735.679C986.707 755.8 986.707 775.581 986.707 795.86Z" fill="#C90A22"/>
<path d="M433.011 735.894C433.012 732.429 433.012 729.457 433.012 725.519C438.649 725.519 444.083 725.327 449.484 725.668C450.682 725.743 452.029 727.528 452.854 728.816C461.01 741.559 469.071 754.363 477.834 768.217C477.834 753.159 477.834 739.217 477.834 724.776C484.099 724.776 489.81 724.776 495.904 724.776C495.904 749.817 495.904 774.891 495.904 800.952C490.648 800.952 485.379 801.143 480.142 800.813C478.9 800.734 477.436 799.123 476.636 797.86C468.705 785.35 460.893 772.764 453.04 760.203C452.626 759.54 452.146 758.917 451.009 757.294C451.009 772.705 451.009 787.012 451.009 801.758C444.936 801.758 439.339 801.758 433.01 801.758C433.01 780.134 433.01 758.261 433.011 735.894Z" fill="#CA0720"/>
<path d="M537.212 799.743C535.855 798.942 534.208 798.143 534.204 797.335C534.067 772.886 534.092 748.436 534.092 723.056C549.817 723.056 565.285 722.834 580.734 723.285C583.152 723.356 585.451 726.527 587.856 728.191C594.109 732.519 596.404 738.127 595.913 745.97C595.156 758.083 595.893 770.283 595.62 782.437C595.568 784.724 594.101 787.218 592.696 789.196C586.692 797.648 578.52 800.38 568.156 799.562C558.067 798.766 547.849 799.614 537.212 799.743ZM577.302 779.227C577.49 767.774 577.94 756.313 577.607 744.875C577.553 742.993 574.202 739.852 572.131 739.636C565.589 738.954 558.932 739.384 552.288 739.384C552.288 754.161 552.288 768.428 552.288 782.981C558.162 782.981 563.804 783.293 569.384 782.84C571.905 782.635 574.301 780.908 577.302 779.227Z" fill="#C90A22"/>
<path d="M229.684 803.819C229.682 781.038 229.682 758.748 229.682 735.889C235.902 735.396 241.786 734.931 248.253 734.419C248.253 744.693 248.253 754.571 248.253 765.206C257.379 764.626 265.909 764.085 274.898 763.514C274.898 753.131 274.898 743.203 274.898 732.794C281.253 732.365 287.16 731.967 293.556 731.535C293.556 757.429 293.556 782.972 293.556 808.996C287.463 809.416 281.429 809.832 274.92 810.28C274.92 799.953 274.92 790.206 274.92 779.848C265.912 780.453 257.379 781.026 248.552 781.618C248.552 791.847 248.552 801.62 248.552 812.095C242.42 812.604 236.534 813.092 229.686 813.661C229.686 810.422 229.686 807.366 229.684 803.819Z" fill="#C9071F"/>
<path d="M341.637 760.495C344.873 750.998 348.055 741.898 351.031 732.731C351.963 729.862 353.222 728.376 356.566 728.514C362.321 728.752 369.442 726.395 373.475 729.008C377.291 731.481 377.976 738.905 379.864 744.214C386.431 762.68 392.926 781.172 399.433 799.66C399.865 800.885 400.168 802.156 400.593 803.619C394.832 803.89 389.364 804.272 383.894 804.295C382.832 804.299 381.72 802.951 380.722 802.118C380.386 801.837 380.31 801.227 380.147 800.757C376.401 789.892 376.402 789.892 365.222 790.527C364.724 790.555 364.214 790.652 363.727 790.586C353.97 789.252 347.096 791.877 345.759 802.984C345.612 804.202 343.229 805.872 341.715 806.075C336.632 806.755 331.474 806.866 325.247 807.265C330.827 791.339 336.166 776.103 341.637 760.495ZM364.985 753.564C364.508 752.301 364.031 751.037 363.275 749.034C360.318 758.152 357.628 766.45 354.943 774.729C360.687 774.729 366.027 774.729 371.957 774.729C369.553 767.454 367.375 760.865 364.985 753.564Z" fill="#CA0720"/>
<path d="M836.994 783.864C836.993 764.892 836.993 746.42 836.993 727.185C854.604 727.888 871.98 728.582 889.708 729.289C889.708 734.69 889.708 739.738 889.708 744.744C878.309 744.744 866.926 744.744 855.274 744.744C855.274 748.764 855.274 753.006 855.274 757.695C864.669 758.108 873.897 758.514 883.385 758.931C883.385 764.227 883.385 769.149 883.385 774.077C873.931 774.077 864.707 774.077 855.243 774.077C855.243 778.371 855.243 782.786 855.243 787.736C866.816 788.264 878.218 788.784 889.913 789.317C889.913 794.881 889.913 800.093 889.913 805.665C872.292 804.908 854.903 804.161 836.995 803.391C836.995 796.897 836.995 790.63 836.994 783.864Z" fill="#C70921"/>
<path d="M673.152 726.935C674.632 725.548 675.894 723.67 677.262 723.59C683.044 723.25 688.857 723.446 695.649 723.446C694.176 726.069 693.112 728.009 692.005 729.924C684.755 742.464 677.429 754.961 670.313 767.577C669.235 769.488 668.691 771.932 668.638 774.148C668.444 782.297 668.561 790.454 668.561 799.037C662.428 799.037 656.544 799.037 650.024 799.037C650.024 790.81 650.178 782.56 649.931 774.322C649.855 771.807 649.138 769.069 647.924 766.87C639.987 752.487 631.834 738.224 623.242 723.023C630.158 723.023 636.219 722.819 642.245 723.185C643.534 723.264 645.061 725.207 645.856 726.637C650.458 734.922 654.875 743.311 659.59 752.104C664.166 743.617 668.574 735.444 673.152 726.935Z" fill="#CB0A23"/>
<path d="M1076.83 769.716C1072.52 773.317 1066.42 776.055 1065.08 780.297C1063.8 784.346 1067.49 789.96 1068.99 794.889C1069.66 797.091 1070.3 799.301 1071.39 802.983C1063.83 797.866 1057.38 793.492 1050.86 789.078C1044.38 793.48 1038.08 797.758 1030.59 802.841C1032.75 795.624 1034.35 789.528 1036.44 783.607C1037.51 780.59 1037.11 778.813 1034.46 776.927C1029.32 773.272 1024.45 769.251 1018.27 764.454C1027.23 764.454 1034.91 764.454 1042.48 764.454C1045.31 756.768 1047.89 749.793 1050.95 741.476C1053.44 748.419 1055.7 754.18 1057.52 760.077C1058.47 763.137 1059.94 764.27 1063.17 764.146C1069.58 763.899 1076.01 764.073 1082.54 765.224C1080.73 766.653 1078.92 768.082 1076.83 769.716Z" fill="#102D60"/>
<path d="M155.854 796.961C151.699 794.272 147.869 789.866 143.995 789.827C140.313 789.79 136.589 794.325 132.876 796.837C130.285 798.589 127.681 800.319 123.846 802.887C126.451 794.353 128.675 787.065 130.989 779.481C125.045 774.815 119.073 770.128 113.101 765.441C113.134 764.991 113.167 764.542 113.199 764.093C119.164 764.093 125.142 763.844 131.087 764.183C134.85 764.398 136.739 763.303 137.843 759.567C139.573 753.714 141.922 748.045 144.36 741.331C146.872 748.393 149.147 754.406 151.121 760.516C151.967 763.134 153.196 764.176 156.058 764.073C162.506 763.843 168.968 764.001 175.425 764.001C175.576 764.432 175.726 764.862 175.877 765.293C170.763 769.216 165.75 773.282 160.489 776.999C158.023 778.741 157.478 780.33 158.499 783.203C160.645 789.239 162.365 795.427 164.679 802.903C161.035 800.443 158.598 798.797 155.854 796.961Z" fill="#102D60"/>
<path d="M251.961 860.076C231.84 860.074 212.218 860.074 192.329 860.074C192.329 857.376 192.329 855.112 192.329 852.439C239.022 852.439 285.733 852.439 332.823 852.439C332.823 854.799 332.823 857.165 332.823 860.077C306.01 860.077 279.236 860.077 251.961 860.076Z" fill="#112F62"/>
<path d="M937.961 860.091C910.839 860.091 884.217 860.091 857.244 860.091C857.244 857.413 857.244 855.035 857.244 852.342C902.48 852.342 947.665 852.342 993.132 852.342C993.132 854.794 993.132 857.06 993.132 860.09C974.903 860.09 956.682 860.09 937.961 860.091Z" fill="#112F62"/>
<path d="M527.245 861.429C529.34 865.233 531.257 868.71 533.197 872.227C524.502 874.495 522.804 874.001 519.304 866.319C517.22 861.745 514.755 859.148 509.162 861.084C509.162 864.663 509.162 868.44 509.162 872.616C505.783 872.616 502.739 872.616 499.346 872.616C499.346 859.637 499.346 846.586 499.346 832.969C507.906 832.969 516.334 832.797 524.749 833.059C527.806 833.155 532.248 839.152 532.581 842.286C533.331 849.347 532.172 855.785 527.245 861.429ZM509.708 841.829C509.4 845.033 509.092 848.238 508.722 852.082C511.857 852.082 514.305 852.083 516.754 852.081C517.753 852.08 518.989 852.438 519.7 851.981C520.902 851.21 522.449 850.043 522.666 848.831C523.714 842.967 522.485 841.65 516.632 841.589C514.632 841.568 512.633 841.583 509.708 841.829Z" fill="#112F62"/>
<path d="M455.941 848.929C459.073 848.928 461.713 848.928 464.697 848.928C464.697 851.772 464.697 854.308 464.697 857.165C459.474 857.165 454.361 857.165 448.873 857.165C448.873 859.699 448.873 861.925 448.873 864.568C455.172 864.568 461.451 864.568 468.139 864.568C468.139 867.491 468.139 870.014 468.139 872.814C458.522 872.814 448.94 872.814 439.051 872.814C439.051 859.7 439.051 846.636 439.051 833.223C448.658 833.223 458.239 833.223 468.215 833.223C468.215 835.786 468.215 838.482 468.215 841.626C461.751 841.626 455.488 841.626 448.753 841.626C448.64 844.107 448.545 846.183 448.42 848.931C450.921 848.931 453.185 848.931 455.941 848.929Z" fill="#112F62"/>
<path d="M405.447 841.3C399.905 841.596 394.732 841.406 389.605 841.806C388.301 841.908 386.087 843.975 386.173 844.977C386.292 846.358 387.969 848.131 389.401 848.732C390.958 849.386 393.031 849.113 394.823 848.855C402.941 847.686 408.72 853.123 408.041 861.728C407.687 866.206 406.418 869.295 403.094 871.824C402.351 872.389 401.367 872.964 400.487 872.974C392.719 873.063 384.95 873.026 376.989 873.026C376.989 870.175 376.989 867.752 376.989 864.699C382.709 864.699 388.303 864.628 393.894 864.73C396.591 864.779 398.267 864.332 398.337 861C398.409 857.559 396.571 857.359 393.957 857.226C388.519 856.948 382.561 858.936 378.177 853.638C376.667 851.814 374.728 841.898 376.524 839.53C378.806 836.521 380.902 832.784 385.725 832.884C392.345 833.021 398.969 832.918 405.833 832.918C405.833 835.861 405.833 838.447 405.447 841.3Z" fill="#112F62"/>
<path d="M739.99 873.034C736.53 873.036 733.564 873.036 730.283 873.036C730.283 859.585 730.283 846.529 730.283 833.181C739.98 833.181 749.403 833.181 759.15 833.181C759.15 835.741 759.15 838.325 759.15 841.458C752.904 841.458 746.682 841.458 740.145 841.458C740.145 844.073 740.145 846.152 740.145 848.71C745.1 848.71 750.182 848.71 755.648 848.71C755.648 851.554 755.648 853.948 755.648 857.046C750.674 857.046 745.468 857.046 740.078 857.046C740.078 859.857 740.078 861.974 740.078 864.583C746.42 864.583 752.682 864.583 759.227 864.583C759.227 867.493 759.227 869.918 759.227 873.032C752.973 873.032 746.729 873.032 739.99 873.034Z" fill="#112F62"/>
<path d="M820.048 863.578C819.798 869.284 816.168 873.005 811.166 873.03C804.02 873.065 796.874 873.039 789.365 873.039C789.365 870.382 789.365 867.847 789.365 864.721C795.021 864.721 800.618 864.698 806.215 864.732C808.737 864.748 810.814 864.628 810.792 861.124C810.771 857.903 809.126 857.111 806.415 857.157C804.753 857.184 803.089 857.154 801.426 857.159C791.456 857.187 789.159 854.629 788.623 844.862C788.359 840.058 790.106 836.951 793.757 834.49C794.789 833.794 796.046 833.027 797.215 833.003C804.006 832.863 810.801 832.935 817.951 832.935C817.951 835.819 817.951 838.384 817.951 841.642C812.999 841.642 807.923 841.66 802.847 841.635C800.392 841.623 798.141 841.581 798.131 845.107C798.122 848.429 800.052 848.923 802.669 848.877C804.497 848.844 806.327 848.912 808.156 848.915C816.886 848.927 820.005 852.004 820.027 860.637C820.029 861.469 820.037 862.3 820.048 863.578Z" fill="#0E2C5E"/>
<path d="M593.261 832.888C595.683 832.883 597.666 832.883 600.332 832.883C597.895 839.846 595.592 846.344 593.347 852.862C591.564 858.04 589.535 863.165 588.212 868.462C587.251 872.312 585.381 873.563 581.617 873.095C579.174 872.791 576.661 873.038 573.905 873.038C569.361 859.733 564.877 846.605 560.268 833.109C564.003 833.109 567.117 833.109 570.813 833.109C573.792 842.095 576.846 851.308 580.251 861.578C583.347 852.477 585.998 844.293 588.997 836.239C589.517 834.842 591.509 833.994 593.261 832.888Z" fill="#112F62"/>
<path d="M696.625 841.598C691.997 841.621 687.834 841.704 683.675 841.616C680.717 841.553 679.409 842.854 679.448 845.792C679.513 850.619 679.545 855.448 679.453 860.273C679.391 863.49 680.916 864.775 684.004 864.74C689.135 864.681 694.267 864.724 699.703 864.724C699.703 867.464 699.703 869.872 699.703 873.03C692.151 873.03 684.493 873.643 677.009 872.765C673.393 872.34 669.845 869.306 669.82 864.51C669.78 857.02 669.751 849.529 669.789 842.039C669.808 838.344 674.485 833.052 678.108 832.963C685.221 832.787 692.342 832.911 700.281 832.911C698.498 836.07 703.148 840.367 696.625 841.598Z" fill="#102D60"/>
<path d="M739.271 430.186C739.414 429.859 739.694 429.872 739.717 429.956C741.806 437.559 747.68 437.029 753.812 437.023C851.307 436.919 948.802 436.964 1046.3 436.838C1048.57 436.835 1050.83 435.233 1053.27 433.979C1054.1 435.042 1054.76 436.502 1055.64 438.447C1053.76 438.573 1052.51 438.73 1051.26 438.731C949.383 438.743 847.508 438.707 745.632 438.831C739.135 438.839 741.181 433.46 739.271 430.186Z" fill="#CF3135"/>
<path d="M114.728 479.153C115.043 478.968 115.255 479.07 115.272 479.198C116.145 485.909 116.143 485.907 123.881 485.907C221.115 485.906 318.349 485.914 415.583 485.862C418.364 485.86 421.144 485.221 424.333 484.863C424.665 488.537 421.955 487.817 419.719 487.817C387.915 487.818 356.111 487.801 324.307 487.802C255.37 487.805 186.433 487.815 117.497 487.823C116.02 487.823 114.544 487.823 112.326 487.823C113.144 484.725 113.839 482.088 114.728 479.153Z" fill="#263668"/>
<path d="M428.255 474.613C426.21 473.873 424.383 471.969 422.553 471.967C323.064 471.823 223.574 471.825 124.085 471.922C121.752 471.925 119.419 473.186 116.712 473.876C116.192 469.158 119.548 469.86 122.524 469.861C206.238 469.887 289.951 469.901 373.664 469.916C392.127 469.919 410.589 469.916 429.622 469.916C429.179 471.62 428.826 472.978 428.255 474.613Z" fill="#1E3364"/>
<path d="M758.152 485.248C760.401 485.202 762.678 485.861 764.956 485.862C864.541 485.912 964.126 485.904 1063.71 485.903C1065.19 485.903 1066.66 485.903 1068.49 485.903C1068.49 484.112 1068.49 482.713 1068.75 481.079C1069.73 482.986 1070.44 485.128 1071.34 487.828C1069.16 487.828 1067.69 487.828 1066.22 487.828C965.307 487.84 864.394 487.863 763.482 487.771C761.714 487.769 759.947 486.385 758.152 485.248Z" fill="#263668"/>
<path d="M128.485 437.036C193.56 436.802 258.381 436.84 323.203 436.864C360.03 436.877 396.857 436.859 433.684 436.894C435.643 436.896 437.601 437.267 439.833 437.806C438.98 438.293 437.853 438.568 436.726 438.569C335.433 438.604 234.141 438.624 132.848 438.578C131.309 438.578 129.771 437.746 128.485 437.036Z" fill="#C40007"/>
<path d="M1066.14 471.61C964.89 471.877 863.662 471.872 762.434 471.819C760.379 471.818 758.323 471.248 756.131 470.585C756.987 470.155 757.979 470.021 758.972 470.021C860.498 470.012 962.024 470.013 1064.27 470.344C1065.28 470.741 1065.56 470.807 1065.84 470.874C1065.95 471.027 1066.05 471.18 1066.14 471.61Z" fill="#001249"/>
<path d="M847.607 562.229C853.357 565.958 862.625 564.538 864.937 558.833C867.065 559.272 869.273 559.727 871.944 560.277C871.944 547.885 872.002 535.764 871.828 523.647C871.815 522.715 870.298 521.566 869.228 520.969C868.463 520.543 867.276 520.867 866.277 520.867C830.652 520.867 795.027 520.95 759.403 520.765C754.93 520.742 753.761 522.021 753.861 526.384C754.147 538.863 753.961 551.352 753.96 564.3C753.347 563.9 752.208 563.042 752.201 562.175C752.09 548.189 752.122 534.202 752.122 519.805C792.654 519.805 833.016 519.805 873.59 519.805C873.59 534.985 873.59 550.055 873.59 565.38C865.404 565.38 857.469 565.45 849.541 565.259C848.841 565.242 848.182 563.52 847.607 562.229Z" fill="#0A295C"/>
<path d="M638.599 866.715C638.597 868.996 638.597 870.797 638.597 872.811C635.176 872.811 632.236 872.811 628.98 872.811C628.98 859.64 628.98 846.563 628.98 833.185C632.004 833.185 635.05 833.185 638.602 833.185C638.602 844.31 638.602 855.272 638.599 866.715Z" fill="#112F62"/>
<path d="M78.6124 552.374C79.1187 553.399 79.8995 554.88 79.9018 556.362C79.9682 598.268 79.9676 640.174 79.9108 682.08C79.9088 683.597 79.2281 685.113 78.4874 686.76C78.1935 662.307 78.2806 637.722 78.3569 613.137C78.4193 593.034 78.4688 572.932 78.6124 552.374Z" fill="#001249"/>
<path d="M829.655 664.36C829.074 663.441 828.049 662.058 828.045 660.673C827.952 624.577 827.949 588.48 828.021 552.383C828.024 550.946 828.913 549.51 829.802 548.005C830.059 550.238 829.769 552.542 829.766 554.845C829.718 591.195 829.707 627.545 829.655 664.36Z" fill="#001249"/>
<path d="M440.588 663.333C440.064 662.375 439.042 660.971 439.039 659.565C438.951 622.941 438.96 586.317 439.013 549.694C439.015 548.496 439.659 547.3 440.374 545.96C440.684 584.84 440.625 623.863 440.588 663.333Z" fill="#001249"/>
<path d="M713.958 357.156C714.413 357.45 714.838 358.035 715.014 358.773C714.487 358.433 714.207 357.939 713.958 357.156Z" fill="#CB2428"/>
<path d="M468.386 356.722C468.221 356.258 468.275 355.601 468.617 354.903C468.805 355.419 468.705 355.974 468.386 356.722Z" fill="#CF3135"/>
<path d="M1065.82 470.591C1065.56 470.807 1065.28 470.741 1064.61 470.454C1064.75 470.259 1065.27 470.284 1065.82 470.591Z" fill="#0D2C5E"/>
<path d="M1053.35 433.232C1053.15 433.274 1052.96 433.158 1052.95 432.964C1053.11 432.888 1053.37 433.074 1053.35 433.232Z" fill="#CF3135"/>
<path d="M683.267 1041.16C666.156 1055.49 649.315 1069.59 632.241 1083.88C620.45 1073.45 608.739 1063.1 596.471 1052.25C604.09 1045.61 611.5 1039.08 618.998 1032.64C635.048 1018.87 651.1 1005.1 667.266 991.469C669.834 989.303 670.661 987.258 670.271 983.821C667.042 955.375 678.509 932.124 701.926 920.317C717.76 912.333 734.277 911.382 749.108 916.412C741.861 924.573 734.368 933.217 726.628 941.636C723.143 945.427 719.152 948.752 715.417 952.316C711.306 956.238 711.072 961.368 714.999 965.452C721.924 972.655 728.924 979.787 735.968 986.874C739.024 989.949 743.059 989.773 746.482 986.57C758.278 975.532 770.052 964.472 781.845 953.432C782.669 952.66 783.581 951.981 784.538 951.188C796.538 993.18 765.605 1033.71 721.987 1030.3C716.73 1029.89 711.511 1028.48 706.381 1027.13C703.178 1026.29 700.724 1026.57 698.164 1028.84C693.431 1033.03 688.428 1036.91 683.267 1041.16Z" fill="#FBFCFC"/>
<path d="M391.849 1021.97C388.731 1018.94 385.913 1016.11 382.981 1013.39C380.335 1010.95 380.437 1008.66 382.888 1006.14C388.001 1000.9 392.952 995.49 398.187 990.373C399.275 989.309 401.355 988.643 402.901 988.765C416.179 989.811 426.395 978.693 423.584 965.542C422.609 960.981 423.472 957.906 426.508 954.358C438.872 939.905 452.214 926.86 470.417 919.905C495.206 910.434 519.594 911.146 543.495 922.869C544.927 923.572 545.868 925.278 547.038 926.518C545.367 927.228 543.712 928.508 542.021 928.559C527.212 929.009 513.012 931.809 501.442 941.569C496.939 945.367 493.462 950.823 490.724 956.144C488.178 961.09 489.532 966.153 494.272 969.937C496.986 972.103 499.369 974.684 502.292 977.448C498.242 981.716 494.411 985.796 490.533 989.831C485.226 995.353 479.775 1000.74 474.604 1006.39C472.115 1009.1 470.031 1009.49 466.926 1007.3C461.07 1003.17 454.34 1003.45 448.311 1007.62C442.712 1011.49 439.637 1018.65 441.84 1025.14C443.395 1029.72 442.255 1032.52 438.905 1035.51C434.81 1039.15 431.118 1043.25 427.254 1047.16C423.266 1051.19 421.799 1051.24 417.82 1047.36C409.237 1038.99 400.672 1030.6 391.849 1021.97Z" fill="#FBFBFC"/>
<path d="M717.834 470.792C718.061 471.399 718.288 472.006 718.758 473.26C717.296 472.659 716.223 472.398 715.345 471.832C675.87 446.381 636.434 420.868 596.905 395.5C594.028 393.653 592.839 391.744 592.858 388.324C592.996 364.161 592.947 339.997 593.368 315.44C594.672 316.016 595.635 316.929 596.449 317.961C629.851 360.307 663.211 402.688 696.657 445C703.554 453.725 710.766 462.201 717.834 470.792Z" fill="#CB041E"/>
<path d="M593.062 313.747C593.054 313.342 593.045 312.937 593.442 312.2C594.911 311.618 595.974 311.368 597.318 311.125C598.099 310.883 598.599 310.636 599.496 310.362C643.472 295.366 687.045 280.387 730.628 265.434C747.752 259.559 764.896 253.743 782.031 247.901C781.273 248.919 780.688 250.152 779.732 250.926C746.39 277.902 712.917 304.717 679.748 331.905C674.831 335.935 670.552 337.962 664.053 334.65C655.588 332.2 647.79 329.987 639.615 327.745C628.179 324.134 617.145 320.472 606.048 317.013C601.793 315.686 597.395 314.822 593.062 313.747Z" fill="#C7061F"/>
<path d="M573.023 318.848C579.381 317.001 585.354 315.257 591.326 313.513C591.475 313.81 591.624 314.108 591.773 314.405C550.011 366.622 508.249 418.839 466.487 471.055C466.241 470.93 465.994 470.805 465.748 470.68C467.316 465.663 468.785 460.611 470.47 455.633C483.229 417.94 495.989 380.246 508.943 342.619C509.607 340.692 511.778 338.547 513.712 337.907C533.298 331.421 552.98 325.227 573.023 318.848Z" fill="#F9FAFB"/>
<path d="M592.997 314.044C597.395 314.822 601.793 315.686 606.048 317.013C617.145 320.472 628.179 324.134 639.91 327.953C648.373 330.719 656.164 333.249 663.954 335.778C671.499 336.817 673.951 342.242 676.174 348.697C689.511 387.422 703.172 426.035 716.69 464.698C717.289 466.411 717.562 468.238 717.91 470.402C710.766 462.201 703.554 453.725 696.657 445C663.211 402.688 629.852 360.307 596.449 317.961C595.635 316.929 594.672 316.016 593.456 314.982C593.067 314.724 593 314.533 592.997 314.044Z" fill="#FBFAFA"/>
<path d="M521.042 288.877C480.989 275.25 441.316 261.735 401.643 248.219C401.699 247.766 401.756 247.313 401.813 246.859C403.14 246.859 404.466 246.859 405.793 246.859C450.277 246.871 494.761 246.85 539.245 247.003C541.22 247.01 543.911 248.047 545.052 249.537C560.754 270.02 576.242 290.666 591.762 311.288C591.913 311.488 591.781 311.901 591.781 312.179C568.328 304.449 544.875 296.719 521.042 288.877Z" fill="#FAFAFB"/>
<path d="M782.01 247.911C764.896 253.743 747.752 259.559 730.628 265.434C687.045 280.387 643.472 295.366 599.462 309.937C599.259 305.241 596.406 304.808 593.164 304.864C593.106 302.16 593.047 299.456 593.423 296.313C596.268 297.412 598.677 298.95 601.171 300.542C602.432 298.626 603.664 296.754 605.25 294.933C606.076 294.603 606.547 294.222 607.002 293.867C606.986 293.894 606.964 293.952 606.964 293.952C615.219 283.602 623.477 273.255 631.728 262.902C635.973 257.577 640.206 252.242 645.181 246.766C691.514 246.617 737.109 246.613 782.462 246.903C782.128 247.434 782.036 247.671 781.944 247.909C781.944 247.909 781.989 247.921 782.01 247.911Z" fill="#FBFAFB"/>
<path d="M604.896 294.882C603.664 296.754 602.432 298.626 601.171 300.542C598.677 298.95 596.268 297.412 593.504 295.869C593.099 291.17 593.049 286.477 593.438 281.315C594.806 279.735 595.737 278.624 596.668 277.513C595.503 276.629 594.338 275.745 593.173 274.862C593.106 254.271 593.008 233.68 592.98 213.09C592.955 193.656 593.003 174.223 593.462 154.316C597.063 150.522 600.219 147.201 603.376 143.88C613.232 169.977 623.099 196.07 632.935 222.174C635.044 227.771 636.88 233.477 639.156 239.002C640.322 241.832 639.788 243.848 638.124 246.283C627.426 261.934 616.891 277.696 606.633 293.686C606.964 293.952 606.986 293.894 606.725 293.575C605.941 293.798 605.419 294.34 604.896 294.882Z" fill="#FBFBFC"/>
<path d="M782.705 246.608C737.109 246.613 691.514 246.617 645.457 246.547C646.39 245.937 647.782 244.936 649.176 244.934C692.943 244.844 736.711 244.845 780.479 244.885C781.38 244.886 782.282 245.517 782.987 246.173C782.79 246.492 782.705 246.608 782.705 246.608Z" fill="#001249"/>
<path d="M603.316 143.56C600.219 147.201 597.063 150.522 593.547 153.854C593.125 150.169 593.062 146.471 593.444 142.306C596.9 140.29 597.575 138.104 595.821 135.141C594.148 132.316 594.879 130.775 598.306 130.85C598.306 130.85 598.338 130.966 598.219 131.466C598.782 133.244 599.465 134.52 600.147 135.797C601.184 138.278 602.22 140.759 603.316 143.56Z" fill="#FBFAFB"/>
<path d="M598.251 130.487C594.879 130.775 594.148 132.316 595.821 135.141C597.575 138.104 596.9 140.29 593.523 141.851C593.131 136.16 593.105 130.457 593.752 124.305C594.817 123.797 595.207 123.737 595.598 123.676C596.464 125.826 597.33 127.975 598.251 130.487Z" fill="#FBFBFC"/>
<path d="M663.959 335.551C656.164 333.249 648.373 330.719 640.286 327.982C647.79 329.987 655.588 332.2 663.669 334.64C663.951 334.868 663.964 335.323 663.959 335.551Z" fill="#263668"/>
<path d="M593.08 305.258C596.406 304.808 599.259 305.241 599.064 309.964C598.599 310.636 598.099 310.883 597.298 310.783C595.7 309.911 594.404 309.387 593.108 308.863C593.071 307.793 593.033 306.723 593.08 305.258Z" fill="#FBFBFC"/>
<path d="M593.092 275.285C594.338 275.745 595.503 276.629 596.668 277.513C595.737 278.624 594.807 279.735 593.524 280.856C593.118 279.147 593.064 277.427 593.092 275.285Z" fill="#FBFAFB"/>
<path d="M593.031 309.118C594.404 309.387 595.7 309.911 597.017 310.777C595.974 311.368 594.911 311.618 593.51 311.903C593.14 311.753 593.109 311.568 593.267 311.008C593.612 310.287 593.498 310.036 593.115 309.879C593.061 309.71 593.007 309.541 593.031 309.118Z" fill="#FBFAFB"/>
<path d="M595.52 123.321C595.207 123.737 594.817 123.797 593.837 123.928C593.249 122.433 593.249 120.867 593.249 118.27C594.264 120.445 594.853 121.705 595.52 123.321Z" fill="#FBFAFB"/>
<path d="M600.127 135.428C599.465 134.52 598.782 133.244 598.199 131.523C598.901 132.406 599.504 133.732 600.127 135.428Z" fill="#FBFBFC"/>
<path d="M782.462 246.903C782.705 246.608 782.79 246.492 782.852 246.454C782.762 246.95 782.611 247.483 782.202 247.962C782.036 247.671 782.128 247.434 782.462 246.903Z" fill="#C7061F"/>
<path d="M593.061 310.123C593.498 310.036 593.612 310.287 593.323 310.732C593.191 310.831 593.008 310.367 593.061 310.123Z" fill="#FBFBFC"/>
<path d="M1065.86 602.768C1059.75 602.461 1054.11 602.166 1048.16 601.854C1048.16 585.096 1048.16 568.514 1048.16 551.92C1055.99 551.92 1064.07 550.966 1071.71 552.38C1074.87 552.964 1079 558.437 1079.36 562.022C1080.39 572.244 1079.8 582.64 1079.68 592.965C1079.62 598.719 1073.67 602.972 1065.86 602.768Z" fill="#F9FAFB"/>
<path d="M227.76 557.889C234.687 547.052 245.683 550.97 255.349 550.537C258.247 550.407 262.797 557.355 262.792 560.593C262.74 592.568 262.684 624.542 262.6 656.517C262.587 661.316 257.485 666.724 252.788 667.076C249.633 667.312 246.423 667.264 243.334 667.852C237.05 669.049 231.953 667.451 227.803 661.612C227.632 626.561 227.696 592.225 227.76 557.889Z" fill="#F9FAFB"/>
<path d="M227.384 558.005C227.696 592.225 227.632 626.561 227.544 661.363C227.003 660.419 226.04 659.01 226.036 657.599C225.95 625.803 225.957 594.006 226.014 562.209C226.016 560.846 226.661 559.484 227.384 558.005Z" fill="#001249"/>
<path d="M926.209 589.031C927.368 583.187 928.451 577.764 929.534 572.342C929.802 572.366 930.071 572.39 930.339 572.414C933.826 589.752 937.313 607.091 940.819 624.528C933.659 624.528 926.752 624.528 918.979 624.528C921.447 612.426 923.79 600.939 926.209 589.031Z" fill="#F1F2F6"/>
<path d="M577.028 779.549C574.301 780.908 571.904 782.635 569.384 782.84C563.804 783.293 558.162 782.981 552.288 782.981C552.288 768.428 552.288 754.161 552.288 739.385C558.932 739.385 565.589 738.954 572.13 739.636C574.202 739.852 577.552 742.993 577.607 744.875C577.94 756.313 577.49 767.774 577.028 779.549Z" fill="#FCF6F7"/>
<path d="M365.091 753.921C367.375 760.865 369.553 767.454 371.957 774.729C366.027 774.729 360.687 774.729 354.943 774.729C357.628 766.45 360.318 758.152 363.275 749.034C364.031 751.037 364.508 752.301 365.091 753.921Z" fill="#FCF6F7"/>
<path d="M510.17 841.705C512.633 841.583 514.632 841.568 516.632 841.589C522.485 841.65 523.714 842.967 522.666 848.831C522.449 850.043 520.902 851.21 519.7 851.981C518.989 852.437 517.753 852.08 516.754 852.081C514.305 852.083 511.857 852.081 508.722 852.081C509.092 848.238 509.4 845.033 510.17 841.705Z" fill="#F1F2F6"/>
<path d="M605.25 294.933C605.419 294.34 605.941 293.798 606.741 293.549C606.547 294.222 606.076 294.603 605.25 294.933Z" fill="#0E2C5E"/>
<path d="M598.429 304.314C598.374 304.346 598.483 304.282 598.429 304.314V304.314Z" fill="#FBFBFC"/>
</svg>
